<?xml version="1.0" encoding="utf-8"?>
<!-- Generator: Adobe Illustrator 25.0.0, SVG Export Plug-In . SVG Version: 6.00 Build 0)  -->
<svg version="1.1" id="Ebene_1" xmlns="http://www.w3.org/2000/svg" xmlns:xlink="http://www.w3.org/1999/xlink" x="0px" y="0px"
	 viewBox="0 0 125.3 35.8" style="enable-background:new 0 0 125.3 35.8;" xml:space="preserve">
<style type="text/css">
	.st0{fill:#FFFFFF;}
	.st1{fill:none;}
</style>
<path class="st0" d="M120.1,10.1c0-0.7-0.2-1.3-0.6-1.6c-0.3-0.3-0.8-0.5-1.3-0.5c-0.5,0-1,0.2-1.3,0.5c-0.3,0.4-0.5,0.9-0.5,1.6
	H120.1z M116.4,11.6c0,0.7,0.2,1.3,0.6,1.7c0.4,0.4,0.9,0.6,1.5,0.6c0.7,0,1.4-0.3,1.9-0.9l1.3,1.1c-0.9,1-2,1.5-3.2,1.5
	c-0.5,0-0.9-0.1-1.4-0.2c-0.2-0.1-0.4-0.2-0.6-0.3c-0.2-0.1-0.4-0.2-0.6-0.4c-0.4-0.3-0.7-0.8-0.9-1.4c-0.3-0.6-0.4-1.3-0.4-2.3
	c0-0.9,0.1-1.6,0.3-2.2c0.2-0.6,0.5-1.1,0.8-1.4c0.4-0.4,0.7-0.6,1.2-0.8c0.4-0.2,0.9-0.2,1.3-0.2c1,0,1.9,0.4,2.6,1
	c0.7,0.7,1.1,1.6,1.1,2.8v1.5H116.4z M110.4,2.7h1.8v10.4c0,0.4,0.2,0.6,0.7,0.6h0.6v1.7h-0.8c-0.6,0-1.2-0.2-1.6-0.5
	c-0.4-0.3-0.7-0.9-0.7-1.7V2.7z M100.8,6.4h1.8v5.4c0,0.6,0.2,1.1,0.5,1.4c0.3,0.3,0.7,0.5,1.3,0.5c0.5,0,0.9-0.2,1.3-0.5
	c0.3-0.3,0.5-0.8,0.5-1.4V6.4h1.8v9.1H106v-1h0c-0.6,0.7-1.3,1.1-2.3,1.1c-0.7,0-1.4-0.3-2-0.8c-0.6-0.5-1-1.3-1-2.3V6.4z M91.1,2.7
	h1.8v4.6h0c0.6-0.7,1.3-1.1,2.3-1.1c0.7,0,1.4,0.3,2,0.8c0.6,0.5,0.9,1.3,0.9,2.4v6h-1.8v-5.4c0-0.6-0.2-1.1-0.5-1.5
	c-0.3-0.3-0.7-0.5-1.3-0.5c-0.5,0-0.9,0.2-1.3,0.5c-0.3,0.3-0.5,0.8-0.5,1.5v5.4h-1.8V2.7z M89.7,14c-0.4,0.5-0.8,0.8-1.4,1.1
	c-0.5,0.3-1.1,0.5-1.8,0.5c-1,0-2-0.4-2.7-1.1c-0.8-0.7-1.2-1.9-1.3-3.6c0-1.7,0.4-2.9,1.3-3.6c0.8-0.7,1.7-1.1,2.7-1.1
	c0.7,0,1.3,0.2,1.8,0.4c0.5,0.3,1,0.7,1.4,1.1L88.4,9c-0.4-0.6-1-0.9-1.8-1c-1.5,0-2.3,0.9-2.3,2.9c0,1.9,0.8,2.9,2.3,2.8
	c0.7,0,1.3-0.3,1.8-1L89.7,14z M74.8,12.7c0.7,0.8,1.6,1.2,2.8,1.2c0.5,0,0.9-0.1,1.2-0.3c0.3-0.2,0.5-0.5,0.5-0.9
	c0-0.3-0.1-0.6-0.3-0.7c-0.2-0.1-0.5-0.2-0.8-0.2l-1.6-0.1c-0.7-0.1-1.3-0.3-1.8-0.8c-0.5-0.4-0.7-1-0.7-1.8c0-0.9,0.3-1.6,1-2.1
	c0.6-0.5,1.4-0.7,2.3-0.7c0.4,0,0.8,0,1.1,0.1c0.3,0.1,0.6,0.1,0.9,0.2c0.5,0.2,1,0.5,1.5,0.9l-1.1,1.3c-0.3-0.3-0.7-0.5-1.1-0.6
	C78.4,8.1,77.9,8,77.4,8c-0.6,0-0.9,0.1-1.2,0.3c-0.2,0.2-0.3,0.5-0.3,0.8c0,0.2,0.1,0.4,0.3,0.5c0.2,0.2,0.5,0.3,0.9,0.3l1.5,0.1
	c0.9,0.1,1.6,0.4,2,0.9c0.4,0.5,0.6,1.1,0.6,1.9c0,0.9-0.4,1.6-1,2c-0.7,0.5-1.5,0.7-2.6,0.8c-1.4,0-2.7-0.5-3.9-1.6L74.8,12.7z
	 M64.9,2.7h1.8v4.6h0c0.6-0.7,1.3-1.1,2.3-1.1c0.7,0,1.4,0.3,2,0.8c0.6,0.5,0.9,1.3,0.9,2.4v6h-1.8v-5.4c0-0.6-0.2-1.1-0.5-1.5
	c-0.3-0.3-0.7-0.5-1.3-0.5c-0.5,0-0.9,0.2-1.3,0.5c-0.3,0.3-0.5,0.8-0.5,1.5v5.4h-1.8V2.7z M63.4,14c-0.4,0.5-0.8,0.8-1.4,1.1
	c-0.5,0.3-1.1,0.5-1.8,0.5c-1,0-2-0.4-2.7-1.1c-0.8-0.7-1.2-1.9-1.3-3.6c0-1.7,0.4-2.9,1.3-3.6c0.8-0.7,1.7-1.1,2.7-1.1
	c0.7,0,1.3,0.2,1.8,0.4c0.5,0.3,1,0.7,1.4,1.1L62.1,9c-0.4-0.6-1-0.9-1.8-1c-1.5,0-2.3,0.9-2.3,2.9c0,1.9,0.8,2.9,2.3,2.8
	c0.7,0,1.3-0.3,1.8-1L63.4,14z M53,10.9c0-0.7,0-1.1-0.1-1.4c-0.1-0.3-0.2-0.5-0.3-0.8c-0.1-0.2-0.3-0.4-0.6-0.5
	c-0.2-0.1-0.5-0.2-0.8-0.2c-0.3,0-0.6,0.1-0.8,0.2c-0.2,0.1-0.4,0.3-0.6,0.5c-0.2,0.2-0.3,0.5-0.3,0.8c-0.1,0.3-0.1,0.8-0.1,1.4
	c0,0.6,0,1.1,0.1,1.4c0.1,0.3,0.2,0.6,0.3,0.8c0.2,0.2,0.4,0.3,0.6,0.5c0.3,0.1,0.5,0.2,0.8,0.2c0.3,0,0.6-0.1,0.8-0.2
	c0.3-0.1,0.4-0.3,0.6-0.5c0.2-0.2,0.3-0.5,0.3-0.8C53,12,53,11.6,53,10.9 M47.5,10.9c0-1,0.1-1.7,0.2-2.2c0.2-0.5,0.4-0.9,0.7-1.3
	c0.2-0.3,0.6-0.6,1-0.8c0.4-0.2,1-0.3,1.7-0.4c0.7,0,1.3,0.1,1.7,0.4c0.4,0.2,0.8,0.5,1,0.8c0.4,0.3,0.6,0.8,0.7,1.3
	c0.1,0.5,0.2,1.3,0.2,2.2c0,1-0.1,1.7-0.2,2.2c-0.1,0.5-0.4,0.9-0.7,1.3c-0.1,0.1-0.3,0.3-0.4,0.4c-0.1,0.1-0.3,0.3-0.6,0.4
	c-0.4,0.3-1,0.4-1.7,0.4c-0.7,0-1.2-0.1-1.7-0.4c-0.4-0.2-0.8-0.5-1-0.8c-0.3-0.4-0.6-0.8-0.7-1.3C47.6,12.6,47.5,11.9,47.5,10.9
	 M38.3,2.7h1.8v4.6h0c0.6-0.7,1.3-1.1,2.3-1.1c0.7,0,1.4,0.3,2,0.8c0.6,0.5,0.9,1.3,0.9,2.4v6h-1.8v-5.4c0-0.6-0.2-1.1-0.5-1.5
	c-0.3-0.3-0.7-0.5-1.3-0.5c-0.5,0-0.9,0.2-1.3,0.5c-0.3,0.3-0.5,0.8-0.5,1.5v5.4h-1.8V2.7z M28.7,2.7h1.8v4.6h0
	c0.6-0.7,1.3-1.1,2.3-1.1c0.7,0,1.4,0.3,2,0.8c0.6,0.5,0.9,1.3,0.9,2.4v6H34v-5.4c0-0.6-0.2-1.1-0.5-1.5c-0.3-0.3-0.7-0.5-1.3-0.5
	c-0.5,0-0.9,0.2-1.3,0.5c-0.3,0.3-0.5,0.8-0.5,1.5v5.4h-1.8V2.7z M27.2,14c-0.4,0.5-0.8,0.8-1.4,1.1c-0.5,0.3-1.1,0.5-1.8,0.5
	c-1,0-2-0.4-2.7-1.1c-0.8-0.7-1.2-1.9-1.3-3.6c0-1.7,0.4-2.9,1.3-3.6c0.8-0.7,1.7-1.1,2.7-1.1c0.7,0,1.3,0.2,1.8,0.4
	c0.5,0.3,1,0.7,1.4,1.1L25.9,9c-0.4-0.6-1-0.9-1.8-1c-1.5,0-2.3,0.9-2.3,2.9c0,1.9,0.8,2.9,2.3,2.8c0.7,0,1.3-0.3,1.8-1L27.2,14z
	 M16.4,11.6h-2.1c-1,0-1.5,0.4-1.5,1.1c0,0.3,0.1,0.6,0.4,0.8c0.3,0.2,0.7,0.4,1.3,0.4c0.7,0,1.3-0.1,1.6-0.3
	c0.3-0.2,0.4-0.6,0.4-1.3V11.6z M16.4,14.7L16.4,14.7c-0.2,0.3-0.5,0.5-0.8,0.7c-0.3,0.2-0.8,0.2-1.4,0.2c-1,0-1.7-0.3-2.3-0.8
	c-0.6-0.5-0.8-1.2-0.8-2c0-0.8,0.2-1.4,0.7-1.9c0.5-0.5,1.2-0.8,2.1-0.8h2.4v-1c0-0.8-0.6-1.2-1.8-1.2c-0.4,0-0.8,0-1,0.1
	c-0.3,0.1-0.5,0.3-0.6,0.6l-1.4-1.1c0.7-0.9,1.7-1.3,3-1.3c1.1,0,2,0.2,2.7,0.6c0.7,0.5,1,1.2,1,2.3v6.2h-1.8V14.7z M2.7,2.7h7.9
	v1.8h-6v3.8h5.1V10H4.6v5.5H2.7V2.7z"/>
<path class="st0" d="M74.4,25.3c-0.4,0-0.7,0.1-1,0.2c-0.2,0.2-0.4,0.4-0.5,0.7c-0.1,0.3-0.2,0.6-0.2,0.9c0,0.3-0.1,0.7-0.1,1.1
	c0,0.3,0,0.7,0.1,1c0,0.3,0.1,0.7,0.2,0.9c0.1,0.3,0.3,0.5,0.5,0.7c0.2,0.2,0.5,0.2,1,0.2c0.4,0,0.8-0.1,1-0.3
	c0.2-0.2,0.4-0.4,0.5-0.7c0.1-0.3,0.2-0.6,0.2-0.9c0-0.3,0-0.7,0-1c0-0.4,0-0.7,0-1c0-0.3-0.1-0.6-0.2-0.9c-0.1-0.3-0.3-0.5-0.5-0.7
	C75.2,25.3,74.8,25.3,74.4,25.3 M76.2,31.7c-0.6,0.7-1.3,1-2.3,1.1c-0.5,0-1-0.1-1.4-0.3c-0.4-0.2-0.7-0.5-1-0.8
	c-0.2-0.3-0.4-0.7-0.5-1.2c-0.1-0.5-0.1-1.2-0.1-2.3c0-1.1,0-1.9,0.1-2.3c0.1-0.5,0.2-0.8,0.5-1.1c0.5-0.8,1.3-1.2,2.4-1.2
	c0.5,0,0.9,0.1,1.3,0.3c0.4,0.2,0.7,0.5,1,0.8v-4.6h1.8v12.8h-1.8V31.7z M61.2,23.5H63v1h0c0.6-0.7,1.3-1.1,2.3-1.1
	c0.7,0,1.4,0.3,2,0.8c0.6,0.5,0.9,1.3,0.9,2.4v6h-1.8v-5.4c0-0.6-0.2-1.1-0.5-1.5c-0.3-0.3-0.7-0.5-1.2-0.5c-0.5,0-0.9,0.2-1.3,0.5
	c-0.3,0.3-0.5,0.8-0.5,1.5v5.4h-1.8V23.5z M51.6,23.5h1.8V29c0,0.6,0.2,1.1,0.5,1.4c0.3,0.3,0.7,0.5,1.3,0.5c0.5,0,0.9-0.2,1.3-0.5
	c0.3-0.3,0.5-0.8,0.5-1.4v-5.4h1.8v9.1h-1.8v-1h0c-0.6,0.7-1.3,1.1-2.3,1.1c-0.7,0-1.4-0.3-2-0.8c-0.6-0.5-1-1.3-1-2.3V23.5z
	 M36.2,23.5H38v1h0c0.6-0.7,1.4-1.1,2.4-1.1c0.6,0,1.1,0.1,1.5,0.3c0.4,0.2,0.7,0.5,1,0.9c0.7-0.8,1.7-1.2,2.9-1.2
	c0.8,0,1.4,0.3,2.1,0.8c0.6,0.5,0.9,1.3,1,2.4v6h-1.8v-5.4c0-0.6-0.2-1.1-0.5-1.5c-0.3-0.3-0.8-0.5-1.3-0.5c-0.5,0-1,0.2-1.3,0.5
	c-0.4,0.3-0.5,0.8-0.5,1.5v5.4h-1.8v-5.4c0-0.6-0.2-1.1-0.5-1.5c-0.3-0.3-0.8-0.5-1.3-0.5c-0.5,0-1,0.2-1.3,0.5
	c-0.4,0.3-0.5,0.8-0.5,1.5v5.4h-1.8V23.5z M30.9,20.8h1.8v2.8H34v1.4h-1.3v5.3c0,0.5,0.2,0.7,0.6,0.7H34v1.7H33
	c-0.6,0-1.1-0.2-1.5-0.6c-0.4-0.4-0.6-0.9-0.6-1.6v-5.5H30v-1.4h0.9V20.8z M22.9,23.5h1.8v1h0c0.6-0.7,1.3-1.1,2.3-1.1
	c0.7,0,1.3,0.2,1.9,0.7l-1.3,1.6c-0.4-0.3-0.8-0.5-1.2-0.5c-0.5,0-0.8,0.2-1.2,0.5c-0.4,0.3-0.5,0.8-0.6,1.4v5.5h-1.8V23.5z
	 M19,28.1c0-0.7,0-1.1-0.1-1.4c-0.1-0.3-0.2-0.5-0.3-0.8c-0.1-0.2-0.3-0.4-0.6-0.5c-0.2-0.1-0.5-0.2-0.8-0.2c-0.3,0-0.6,0.1-0.8,0.2
	c-0.2,0.1-0.4,0.3-0.6,0.5c-0.2,0.2-0.3,0.5-0.3,0.8c-0.1,0.3-0.1,0.8-0.1,1.4c0,0.6,0,1.1,0.1,1.4c0.1,0.3,0.2,0.6,0.3,0.8
	c0.2,0.2,0.4,0.3,0.6,0.5c0.3,0.1,0.5,0.2,0.8,0.2c0.3,0,0.6-0.1,0.8-0.2c0.3-0.1,0.4-0.3,0.6-0.5c0.2-0.2,0.3-0.5,0.3-0.8
	C19,29.2,19,28.7,19,28.1 M13.5,28.1c0-1,0.1-1.7,0.2-2.2c0.2-0.5,0.4-0.9,0.7-1.3c0.2-0.3,0.6-0.6,1-0.8c0.4-0.2,1-0.3,1.7-0.4
	c0.7,0,1.3,0.1,1.7,0.4c0.4,0.2,0.8,0.5,1,0.8c0.4,0.3,0.6,0.8,0.7,1.3c0.1,0.5,0.2,1.2,0.2,2.2c0,1-0.1,1.7-0.2,2.2
	c-0.1,0.5-0.4,0.9-0.7,1.3c-0.1,0.1-0.3,0.3-0.4,0.4c-0.1,0.1-0.3,0.3-0.6,0.4c-0.4,0.3-1,0.4-1.7,0.4c-0.7,0-1.2-0.1-1.7-0.4
	c-0.4-0.2-0.8-0.5-1-0.8c-0.3-0.4-0.6-0.8-0.7-1.3C13.6,29.8,13.5,29,13.5,28.1 M4.7,30.8h2.2c1.1,0,1.8-0.4,2.3-1.1
	c0.2-0.3,0.3-0.6,0.4-1c0.1-0.4,0.1-1.2,0.1-2.3c0-1.1,0-1.9-0.1-2.4c-0.1-0.5-0.2-0.9-0.5-1.2c-0.5-0.7-1.3-1.1-2.2-1.1H4.7V30.8z
	 M2.8,19.9h4.3c1.7,0,2.9,0.7,3.8,2.2c0.3,0.5,0.5,1,0.6,1.5c0.1,0.5,0.1,1.4,0.1,2.7c0,1.4,0,2.3-0.1,2.9c0,0.3-0.1,0.5-0.2,0.7
	c-0.1,0.2-0.2,0.4-0.3,0.7c-0.4,0.6-0.9,1.1-1.5,1.5c-0.6,0.4-1.4,0.6-2.3,0.6H2.8V19.9z"/>
<rect x="2.7" y="2.7" class="st1" width="119.1" height="43"/>
</svg>
